<svg version="1.1" xmlns="http://www.w3.org/2000/svg" xmlns:xlink="http://www.w3.org/1999/xlink" x="0px" y="0px"
	 width="76px" height="130px" viewBox="0 0 76 130" enable-background="new 0 0 76 130" xml:space="preserve">
<polygon fill="#D6926A" points="47.047,94.752 38.194,105.566 38.194,6.183 37.194,6.183 37.194,105.542 28.466,94.646
	27.686,95.271 37.689,107.762 47.82,95.385 "/>
<g opacity="0.6">
	<path fill="#D6926A" d="M37.755,124.113c-13.233,0-24-10.767-24-24s10.767-24,24-24s24,10.767,24,24S50.988,124.113,37.755,124.113
		z M37.755,77.113c-12.682,0-23,10.317-23,23s10.318,23,23,23c12.683,0,23-10.317,23-23S50.438,77.113,37.755,77.113z"/>
</g>
</svg>
